<?xml version="1.0" standalone="no"?><!DOCTYPE svg PUBLIC "-//W3C//DTD SVG 1.1//EN" "http://www.w3.org/Graphics/SVG/1.1/DTD/svg11.dtd"><svg t="1765391521515" class="icon" viewBox="0 0 1024 1024" version="1.1" xmlns="http://www.w3.org/2000/svg" p-id="1683" xmlns:xlink="http://www.w3.org/1999/xlink" width="200" height="200"><path d="M207.479425 351.102497c-66.627467 0-120.833019-54.205553-120.833019-120.83302S140.850935 109.436458 207.479425 109.436458c66.632583 0 120.842229 54.205553 120.842229 120.833019S274.112008 351.102497 207.479425 351.102497z m0-215.060078c-51.956326 0-94.227058 42.270732-94.227058 94.227058s42.270732 94.227058 94.227058 94.227058c51.962465 0 94.236268-42.270732 94.236268-94.227058s-42.273802-94.227058-94.236268-94.227058z" fill="#7E95A8" p-id="1684"></path><path d="M266.839371 231.165894a7.163143 7.163143 0 0 1-7.163143-7.163144c0-23.179932-18.85851-42.038442-42.038442-42.038442a7.163143 7.163143 0 1 1 0-14.326287c31.079856 0 56.364729 25.284873 56.364728 56.364729a7.163143 7.163143 0 0 1-7.163143 7.163144zM771.190157 957.99061c-81.287351 0-147.419538-66.12707-147.419537-147.409304s66.132186-147.409304 147.419537-147.409305c81.282235 0 147.409304 66.12707 147.409305 147.409305s-66.12707 147.409304-147.409305 147.409304z m0-268.211624c-66.617234 0-120.813576 54.19225-120.813576 120.803343S704.572924 931.385673 771.190157 931.385673c66.611094 0 120.803343-54.19225 120.803343-120.803344s-54.19225-120.803343-120.803343-120.803343z" fill="#7E95A8" p-id="1685"></path><path d="M845.205894 809.930483a7.163143 7.163143 0 0 1-7.163143-7.163143c0-29.886681-24.315802-54.201459-54.202483-54.20146a7.163143 7.163143 0 1 1 0-14.326286c37.786605 0 68.528769 30.741142 68.52877 68.527746a7.163143 7.163143 0 0 1-7.163144 7.163143zM724.674751 315.758524c-67.823712 0-123.003452-55.174624-123.003452-122.994242 0-67.824735 55.17974-123.003452 123.003452-123.003452s123.003452 55.178717 123.003451 123.003452c0 67.819618-55.17974 122.994242-123.003451 122.994242z m0-231.671407c-59.924811 0-108.677165 48.752354-108.677165 108.677165 0 59.919694 48.753377 108.667955 108.677165 108.667955s108.677165-48.748261 108.677164-108.667955c0-59.924811-48.753377-108.677165-108.677164-108.677165z" fill="#7E95A8" p-id="1686"></path><path d="M788.607852 193.174628a7.163143 7.163143 0 0 1-7.163144-7.163144c0-25.278733-20.560268-45.843094-45.831838-45.843094a7.163143 7.163143 0 1 1 0-14.326287c33.171494 0 60.158125 26.991748 60.158125 60.169381a7.163143 7.163143 0 0 1-7.163143 7.163144zM266.304182 828.945559c-50.423413 0-91.445712-41.022299-91.445712-91.444689 0-50.423413 41.022299-91.445712 91.445712-91.445711 50.42239 0 91.444689 41.022299 91.444688 91.445711 0 50.42239-41.021276 91.444689-91.444688 91.444689z m0-168.565137c-42.523489 0-77.119425 34.595936-77.119425 77.119425s34.595936 77.118402 77.119425 77.118402 77.118402-34.595936 77.118401-77.118402c0-42.523489-34.594913-77.119425-77.118401-77.119425z" fill="#7E95A8" p-id="1687"></path><path d="M312.828798 739.750097a7.163143 7.163143 0 0 1-7.163143-7.163143c0-17.315364-14.09195-31.403221-31.411407-31.403221a7.163143 7.163143 0 1 1 0-14.326286c25.220405 0 45.737694 20.514219 45.737693 45.729507a7.163143 7.163143 0 0 1-7.163143 7.163143zM493.830175 640.782062c-86.319971 0-156.546406-70.226434-156.546405-156.546406s70.226434-156.546406 156.546405-156.546405 156.546406 70.225411 156.546406 156.545382-70.226434 156.547429-156.546406 156.547429z m0-286.487873c-71.649853 0-129.940444 58.291614-129.940444 129.940444s58.291614 129.940444 129.940444 129.940444S623.77062 555.884486 623.77062 484.234633s-58.290591-129.940444-129.940445-129.940444z" fill="#7E95A8" p-id="1688"></path><path d="M591.833233 488.974587a7.163143 7.163143 0 0 1-7.163143-7.163143c0-47.857984-38.934754-86.791715-86.791716-86.791715a7.163143 7.163143 0 1 1 0-14.326287c55.756885 0 101.118002 45.36214 101.118002 101.118002a7.163143 7.163143 0 0 1-7.163143 7.163143zM387.116735 393.82246a7.135514 7.135514 0 0 1-5.015224-2.049682l-87.191828-85.527932a7.163143 7.163143 0 0 1-0.097214-10.129708 7.163143 7.163143 0 0 1 10.129708-0.097214l87.191828 85.527932a7.163143 7.163143 0 0 1-5.01727 12.276604zM592.227206 385.522424a7.163143 7.163143 0 0 1-5.658883-11.548011l59.788711-77.226872a7.163143 7.163143 0 1 1 11.328 8.769734l-59.788712 77.226872a7.154957 7.154957 0 0 1-5.669116 2.778277zM684.408675 716.851575a7.142677 7.142677 0 0 1-5.242398-2.279927l-102.138238-109.612466a7.163143 7.163143 0 0 1 10.481725-9.767458l102.138239 109.612467a7.163143 7.163143 0 0 1-5.239328 12.047384zM323.181587 674.501024a7.163143 7.163143 0 0 1-5.235235-12.051477l69.753667-74.736145a7.163143 7.163143 0 0 1 10.473539 9.775644l-69.753667 74.736145a7.143701 7.143701 0 0 1-5.238304 2.275833z" fill="#7E95A8" p-id="1689"></path></svg>